<svg width="38" height="38" viewBox="0 0 38 38" fill="none" xmlns="http://www.w3.org/2000/svg">
<g clip-path="url(#clip0_96_512)">
<path d="M19 8.3125C18.178 8.3125 17.3744 8.06874 16.6909 7.61205C16.0074 7.15535 15.4747 6.50623 15.1601 5.74678C14.8456 4.98732 14.7632 4.15164 14.9236 3.34541C15.084 2.53917 15.4798 1.7986 16.0611 1.21734C16.6424 0.636077 17.3829 0.240233 18.1892 0.079863C18.9954 -0.0805068 19.8311 0.00180087 20.5905 0.316378C21.35 0.630954 21.9991 1.16367 22.4558 1.84716C22.9125 2.53065 23.1563 3.33422 23.1563 4.15625C23.1551 5.2582 22.7168 6.31467 21.9376 7.09386C21.1584 7.87305 20.1019 8.31132 19 8.3125Z" fill="white"/>
<path d="M32.0627 8.37177L32.0293 8.38068L31.9982 8.39032C31.9239 8.41111 31.8497 8.43337 31.7755 8.45638C30.3943 8.86161 23.6909 10.7512 18.9683 10.7512C14.5798 10.7512 8.4827 9.11841 6.53223 8.564C6.33811 8.48894 6.13987 8.42501 5.93848 8.37251C4.52832 8.00142 3.56348 9.43384 3.56348 10.7431C3.56348 12.0397 4.72871 12.6572 5.90508 13.1002V13.121L12.9722 15.3283C13.6943 15.6051 13.8873 15.8879 13.9816 16.1328C14.2881 16.9188 14.0432 18.4752 13.9563 19.0184L13.5259 22.3583L11.1368 35.4349C11.1293 35.4705 11.1227 35.5069 11.1167 35.544L11.0996 35.6383C10.9275 36.8369 11.8077 37.9999 13.4747 37.9999C14.9293 37.9999 15.5713 36.9957 15.8497 35.6293C15.8497 35.6293 17.9278 23.9347 18.9668 23.9347C20.0059 23.9347 22.1464 35.6293 22.1464 35.6293C22.4247 36.9957 23.0667 37.9999 24.5214 37.9999C26.1928 37.9999 27.073 36.8317 26.8964 35.6293C26.8808 35.5269 26.8622 35.426 26.84 35.328L24.4182 22.3598L23.9885 19.0199C23.6775 17.0747 23.9276 16.4319 24.0122 16.2813C24.0145 16.2777 24.0165 16.274 24.0182 16.2701C24.0983 16.1217 24.4635 15.7892 25.3155 15.4693L31.9418 13.1529C31.9825 13.1421 32.0226 13.1292 32.062 13.1143C33.2495 12.669 34.437 12.053 34.437 10.7445C34.437 9.43607 33.4729 8.00142 32.0627 8.37177Z" fill="white"/>
</g>
<defs>
<clipPath id="clip0_96_512">
<rect width="38" height="38" fill="white"/>
</clipPath>
</defs>
</svg>
