<svg width="33" height="33" viewBox="0 0 33 33" fill="none" xmlns="http://www.w3.org/2000/svg">
<path d="M16.7274 25.4978C21.4919 25.4978 25.3542 21.6354 25.3542 16.871C25.3542 12.1065 21.4919 8.24414 16.7274 8.24414C11.9629 8.24414 8.10059 12.1065 8.10059 16.871C8.10059 21.6354 11.9629 25.4978 16.7274 25.4978Z" stroke="#051B44" stroke-width="2.4" stroke-linecap="round" stroke-linejoin="round"/>
<path d="M26.2033 26.3479L26.0308 26.1753M26.0308 7.56795L26.2033 7.39541L26.0308 7.56795ZM7.25088 26.3479L7.42341 26.1753L7.25088 26.3479ZM16.7271 3.70579V3.59961V3.70579ZM16.7271 30.1437V30.0375V30.1437ZM3.56125 16.8716H3.45508H3.56125ZM29.9991 16.8716H29.893H29.9991ZM7.42341 7.56795L7.25088 7.39541L7.42341 7.56795Z" stroke="#051B44" stroke-width="2.4" stroke-linecap="round" stroke-linejoin="round"/>
</svg>
