<svg width="29" height="30" viewBox="0 0 29 30" fill="none" xmlns="http://www.w3.org/2000/svg">
<path fill-rule="evenodd" clip-rule="evenodd" d="M13.3579 2.66276C7.19077 3.31394 2.38534 8.53127 2.38534 14.8709C2.38534 21.6511 7.88177 27.1476 14.662 27.1476C21.0016 27.1476 26.219 22.3422 26.8701 16.1751C25.1093 18.4105 22.3765 19.848 19.3072 19.848C13.9929 19.848 9.68495 15.54 9.68495 10.2257C9.68495 7.15642 11.1225 4.4236 13.3579 2.66276ZM0.394531 14.8709C0.394531 6.99126 6.78228 0.603516 14.662 0.603516C15.613 0.603516 16.0892 1.36169 16.1707 1.96558C16.2493 2.54651 16.0346 3.28533 15.3667 3.68882C13.1525 5.02682 11.6758 7.4543 11.6758 10.2257C11.6758 14.4404 15.0925 17.8572 19.3072 17.8572C22.0786 17.8572 24.5061 16.3804 25.844 14.1662C26.2475 13.4984 26.9864 13.2836 27.5673 13.3622C28.1712 13.4437 28.9294 13.9199 28.9294 14.8709C28.9294 22.7507 22.5417 29.1384 14.662 29.1384C6.78228 29.1384 0.394531 22.7507 0.394531 14.8709Z" fill="#051B44"/>
</svg>
