<svg width="33" height="33" viewBox="0 0 33 33" fill="none" xmlns="http://www.w3.org/2000/svg">
<path fill-rule="evenodd" clip-rule="evenodd" d="M15.3574 4.66325C9.19028 5.31443 4.38485 10.5318 4.38485 16.8714C4.38485 23.6516 9.88129 29.1481 16.6615 29.1481C23.0011 29.1481 28.2185 24.3427 28.8696 18.1755C27.1088 20.411 24.376 21.8484 21.3067 21.8484C15.9924 21.8484 11.6845 17.5405 11.6845 12.2262C11.6845 9.15691 13.122 6.42409 15.3574 4.66325ZM2.39404 16.8714C2.39404 8.99175 8.78179 2.604 16.6615 2.604C17.6125 2.604 18.0887 3.36218 18.1702 3.96607C18.2488 4.547 18.0341 5.28582 17.3662 5.68931C15.152 7.02731 13.6753 9.45479 13.6753 12.2262C13.6753 16.4409 17.092 19.8576 21.3067 19.8576C24.0781 19.8576 26.5056 18.3809 27.8436 16.1667C28.247 15.4988 28.9859 15.2841 29.5668 15.3627C30.1707 15.4442 30.9289 15.9204 30.9289 16.8714C30.9289 24.7512 24.5412 31.1389 16.6615 31.1389C8.78179 31.1389 2.39404 24.7512 2.39404 16.8714Z" fill="white"/>
</svg>
