<svg width="32" height="33" viewBox="0 0 32 33" fill="none" xmlns="http://www.w3.org/2000/svg">
<path d="M15.9227 25.4563C20.6872 25.4563 24.5495 21.5939 24.5495 16.8295C24.5495 12.065 20.6872 8.20264 15.9227 8.20264C11.1583 8.20264 7.2959 12.065 7.2959 16.8295C7.2959 21.5939 11.1583 25.4563 15.9227 25.4563Z" stroke="white" stroke-width="2.4" stroke-linecap="round" stroke-linejoin="round"/>
<path d="M25.3986 26.3054L25.2261 26.1329M25.2261 7.52547L25.3986 7.35293L25.2261 7.52547ZM6.44619 26.3054L6.61873 26.1329L6.44619 26.3054ZM15.9224 3.66331V3.55713V3.66331ZM15.9224 30.1012V29.995V30.1012ZM2.75657 16.8292H2.65039H2.75657ZM29.1945 16.8292H29.0883H29.1945ZM6.61873 7.52547L6.44619 7.35293L6.61873 7.52547Z" stroke="white" stroke-width="2.4" stroke-linecap="round" stroke-linejoin="round"/>
</svg>
