<svg width="33" height="33" viewBox="0 0 33 33" fill="none" xmlns="http://www.w3.org/2000/svg">
<g clip-path="url(#clip0_740_867)">
<path d="M8.28217 18.1377L6.55602 13.0263C6.42195 13.462 6.27112 13.881 6.13705 14.2999C6.00298 14.7189 5.86891 15.1379 5.73484 15.5401C5.58401 15.959 5.44994 16.378 5.29911 16.8137C5.16504 17.2495 5.01421 17.6852 4.86339 18.1377H8.28217ZM0.791016 22.4949L5.61753 10.2778H7.51126L12.3378 22.4949H9.37148L8.93576 20.6012H4.17628L3.58972 22.4949H0.791016Z" fill="white"/>
<path d="M15.274 16.9478V19.5789H17.4862C18.2738 19.5789 18.8436 19.4616 19.1955 19.2605C19.4972 19.0594 19.648 18.674 19.648 18.0706C19.648 17.9031 19.4972 17.6852 19.162 17.4003C18.8101 17.0986 18.2403 16.9478 17.4862 16.9478H15.274ZM15.274 11.9537V15.0708H17.2851C18.5922 15.0708 19.2458 14.5848 19.2458 13.6296C19.2458 12.6408 18.6593 11.9537 17.2851 11.9537H15.274ZM13.0786 22.4949V10.2778H17.0169C18.3241 10.2778 19.3296 10.5627 20.0167 11.099C20.7038 11.652 21.0558 12.4397 21.0558 13.4452C21.0558 14.6351 20.6703 15.4395 19.8827 15.8752C21.3909 16.4283 22.078 17.5008 22.078 18.9421C22.078 21.2213 20.3016 22.4949 17.5532 22.4949H13.0786Z" fill="white"/>
<path d="M32.7908 13.4454C30.9306 12.1717 29.9083 11.9874 28.6346 11.9874C26.1711 11.9874 25.0985 13.5124 25.0985 16.3949C25.132 18.892 26.3554 19.7132 28.886 19.7132C30.1597 19.7132 31.4166 19.1099 32.7908 17.853V21.4561C31.5506 22.294 30.2435 22.7297 28.8022 22.7297C25.0985 22.7297 22.8193 20.283 22.8193 16.3949C22.8193 12.5237 24.8471 10.2277 28.5508 10.0601C29.9753 9.99311 31.0646 10.0769 32.7908 10.9148V13.4454Z" fill="white"/>
</g>
<defs>
<clipPath id="clip0_740_867">
<rect width="32.1117" height="32.1117" fill="white" transform="translate(0.791016 0.0419922)"/>
</clipPath>
</defs>
</svg>
