<svg width="33" height="13" viewBox="0 0 33 13" fill="none" xmlns="http://www.w3.org/2000/svg">
<path d="M8.28314 8.13719L6.55699 3.02577C6.42292 3.4615 6.27209 3.88047 6.13803 4.29944C6.00396 4.71841 5.86989 5.13737 5.73582 5.53958C5.58499 5.95855 5.45092 6.37752 5.30009 6.81325C5.16602 7.24897 5.01519 7.6847 4.86436 8.13719H8.28314ZM0.791992 12.4945L5.61851 0.277344H7.51224L12.3388 12.4945H9.37246L8.93673 10.6007H4.17725L3.5907 12.4945H0.791992Z" fill="#051B44"/>
<path d="M15.2755 6.94732V9.57843H17.4876C18.2753 9.57843 18.8451 9.46112 19.197 9.26002C19.4987 9.05891 19.6495 8.67346 19.6495 8.07015C19.6495 7.90256 19.4987 7.6847 19.1635 7.3998C18.8116 7.09814 18.2418 6.94732 17.4876 6.94732H15.2755ZM15.2755 1.95322V5.07034H17.2865C18.5937 5.07034 19.2473 4.58434 19.2473 3.62909C19.2473 2.64032 18.6607 1.95322 17.2865 1.95322H15.2755ZM13.0801 12.4945V0.277344H17.0184C18.3256 0.277344 19.3311 0.562242 20.0182 1.09852C20.7053 1.65156 21.0572 2.43922 21.0572 3.44474C21.0572 4.63461 20.6718 5.43903 19.8841 5.87476C21.3924 6.4278 22.0795 7.50035 22.0795 8.9416C22.0795 11.2208 20.3031 12.4945 17.5547 12.4945H13.0801Z" fill="#051B44"/>
<path d="M32.7918 3.44443C30.9315 2.17077 29.9093 1.98642 28.6356 1.98642C26.1721 1.98642 25.0995 3.51147 25.0995 6.39397C25.133 8.89102 26.3564 9.7122 28.887 9.7122C30.1606 9.7122 31.4175 9.10888 32.7918 7.85198V11.4551C31.5516 12.293 30.2444 12.7288 28.8032 12.7288C25.0995 12.7288 22.8203 10.282 22.8203 6.39397C22.8203 2.5227 24.8481 0.226758 28.5518 0.059171C29.9763 -0.00786406 31.0656 0.0759295 32.7918 0.913866V3.44443Z" fill="#051B44"/>
</svg>
