<svg width="36" height="32" viewBox="0 0 36 32" fill="none" xmlns="http://www.w3.org/2000/svg">
<path d="M33.6 0H1.6C1.17565 0 0.768687 0.168571 0.468629 0.468629C0.168571 0.768687 0 1.17565 0 1.6V24C0 24.4243 0.168571 24.8313 0.468629 25.1314C0.768687 25.4314 1.17565 25.6 1.6 25.6H12.8V28.8H8C7.57565 28.8 7.16869 28.9686 6.86863 29.2686C6.56857 29.5687 6.4 29.9757 6.4 30.4C6.4 30.8243 6.56857 31.2313 6.86863 31.5314C7.16869 31.8314 7.57565 32 8 32H27.2C27.6243 32 28.0313 31.8314 28.3314 31.5314C28.6314 31.2313 28.8 30.8243 28.8 30.4C28.8 29.9757 28.6314 29.5687 28.3314 29.2686C28.0313 28.9686 27.6243 28.8 27.2 28.8H22.4V25.6H33.6C34.0243 25.6 34.4313 25.4314 34.7314 25.1314C35.0314 24.8313 35.2 24.4243 35.2 24V1.6C35.2 1.17565 35.0314 0.768687 34.7314 0.468629C34.4313 0.168571 34.0243 0 33.6 0ZM32 3.2V7.5H3.2V3.2H32ZM19.2 28.8H16V25.6H19.2V28.8ZM3.2 22.4V7.5H32V22.4H3.2Z" fill="#051B44"/>
<path d="M3 13.5L33 13.5" stroke="#051B44" stroke-width="3" stroke-linecap="square" stroke-dasharray="5 5"/>
</svg>
