<svg width="32" height="33" viewBox="0 0 32 33" fill="none" xmlns="http://www.w3.org/2000/svg">
<path d="M29.1549 16.8294C29.1549 20.7314 27.456 24.2617 24.7485 26.664C22.4127 28.7875 19.3203 30.0616 15.9226 30.0616C8.62303 30.0616 2.69043 24.129 2.69043 16.8294C2.69043 9.52977 8.62303 3.59717 15.9226 3.59717C19.3203 3.59717 22.4127 4.87128 24.7485 6.99481C27.456 9.39705 29.1549 12.9274 29.1549 16.8294Z" stroke="white" stroke-width="2.4" stroke-linecap="round" stroke-linejoin="round"/>
<path d="M15.8826 22.6558C15.8561 24.8457 14.2236 25.3766 12.6973 24.7661C9.55188 23.5052 7.33545 20.4261 7.33545 16.8294C7.33545 13.2327 9.55188 10.1535 12.6973 8.87943C14.2236 8.26892 15.8561 8.81307 15.8826 10.9897V22.6558Z" stroke="white" stroke-width="2.4" stroke-linecap="round" stroke-linejoin="round"/>
</svg>
