<svg width="33" height="33" viewBox="0 0 33 33" fill="none" xmlns="http://www.w3.org/2000/svg">
<path d="M29.9595 16.8709C29.9595 20.7729 28.2607 24.3032 25.5532 26.7055C23.2174 28.829 20.125 30.1031 16.7273 30.1031C9.42772 30.1031 3.49512 24.1705 3.49512 16.8709C3.49512 9.57127 9.42772 3.63867 16.7273 3.63867C20.125 3.63867 23.2174 4.91279 25.5532 7.03631C28.2607 9.43855 29.9595 12.9689 29.9595 16.8709Z" stroke="#051B44" stroke-width="2.4" stroke-linecap="round" stroke-linejoin="round"/>
<path d="M16.6878 22.6978C16.6613 24.8877 15.0288 25.4186 13.5025 24.808C10.3571 23.5472 8.14062 20.4681 8.14062 16.8714C8.14062 13.2747 10.3571 10.1955 13.5025 8.92143C15.0288 8.31091 16.6613 8.85507 16.6878 11.0317V22.6978Z" stroke="#051B44" stroke-width="2.4" stroke-linecap="round" stroke-linejoin="round"/>
</svg>
