<svg width="36" height="33" viewBox="0 0 36 33" fill="none" xmlns="http://www.w3.org/2000/svg">
<path d="M33.6 0.5H1.6C1.17565 0.5 0.768687 0.668571 0.468629 0.968629C0.168571 1.26869 0 1.67565 0 2.1V24.5C0 24.9243 0.168571 25.3313 0.468629 25.6314C0.768687 25.9314 1.17565 26.1 1.6 26.1H12.8V29.3H8C7.57565 29.3 7.16869 29.4686 6.86863 29.7686C6.56857 30.0687 6.4 30.4757 6.4 30.9C6.4 31.3243 6.56857 31.7313 6.86863 32.0314C7.16869 32.3314 7.57565 32.5 8 32.5H27.2C27.6243 32.5 28.0313 32.3314 28.3314 32.0314C28.6314 31.7313 28.8 31.3243 28.8 30.9C28.8 30.4757 28.6314 30.0687 28.3314 29.7686C28.0313 29.4686 27.6243 29.3 27.2 29.3H22.4V26.1H33.6C34.0243 26.1 34.4313 25.9314 34.7314 25.6314C35.0314 25.3313 35.2 24.9243 35.2 24.5V2.1C35.2 1.67565 35.0314 1.26869 34.7314 0.968629C34.4313 0.668571 34.0243 0.5 33.6 0.5ZM32 3.7V8H3.2V3.7H32ZM19.2 29.3H16V26.1H19.2V29.3ZM3.2 22.9V12.5H32V22.9H3.2Z" fill="#051B44"/>
</svg>
