<svg width="36" height="33" viewBox="0 0 36 33" fill="none" xmlns="http://www.w3.org/2000/svg">
<path d="M33.7953 0.458008H1.79531C1.37097 0.458008 0.964 0.626579 0.663942 0.926637C0.363883 1.2267 0.195313 1.63366 0.195312 2.05801V24.458C0.195313 24.8824 0.363883 25.2893 0.663942 25.5894C0.964 25.8894 1.37097 26.058 1.79531 26.058H12.9953V29.258H8.19531C7.77097 29.258 7.364 29.4266 7.06394 29.7266C6.76388 30.0267 6.59531 30.4337 6.59531 30.858C6.59531 31.2824 6.76388 31.6893 7.06394 31.9894C7.364 32.2894 7.77097 32.458 8.19531 32.458H27.3953C27.8197 32.458 28.2266 32.2894 28.5267 31.9894C28.8267 31.6893 28.9953 31.2824 28.9953 30.858C28.9953 30.4337 28.8267 30.0267 28.5267 29.7266C28.2266 29.4266 27.8197 29.258 27.3953 29.258H22.5953V26.058H33.7953C34.2197 26.058 34.6266 25.8894 34.9267 25.5894C35.2267 25.2893 35.3953 24.8824 35.3953 24.458V2.05801C35.3953 1.63366 35.2267 1.2267 34.9267 0.926637C34.6266 0.626579 34.2197 0.458008 33.7953 0.458008ZM32.1953 3.65801V7.95801H3.39531V3.65801H32.1953ZM19.3953 29.258H16.1953V26.058H19.3953V29.258ZM3.39531 22.858V12.458H32.1953V22.858H3.39531Z" fill="white"/>
</svg>
