<svg width="32" height="32" viewBox="0 0 32 32" fill="none" xmlns="http://www.w3.org/2000/svg">
<path d="M17.5997 15.7349C17.5997 19.1269 14.8583 21.8682 11.4663 21.8682C8.07434 21.8682 5.33301 19.1269 5.33301 15.7349C5.33301 12.3429 8.07434 9.60156 11.4663 9.60156" stroke="#051B44" stroke-width="2.4" stroke-linecap="round" stroke-linejoin="round"/>
<path d="M13.8662 15.734C13.8662 12.2033 16.7355 9.33398 20.2662 9.33398C23.7969 9.33398 26.6662 12.2033 26.6662 15.734C26.6662 19.2647 23.7969 22.134 20.2662 22.134" stroke="#051B44" stroke-width="2.4" stroke-linecap="round" stroke-linejoin="round"/>
<path d="M21.6725 5.73219L23.116 4.21287C23.5147 3.79315 23.4977 3.13022 23.078 2.73148C22.6586 2.33298 21.9954 2.34973 21.5966 2.76943L20.1532 4.28876C19.7545 4.70848 19.7717 5.37165 20.1911 5.77014C20.6109 6.16889 21.2738 6.1519 21.6725 5.73219Z" fill="#051B44"/>
<path d="M8.75959 4.51448L10.2789 5.95792C10.6986 6.35667 11.3616 6.33968 11.7603 5.91998C12.1588 5.50052 12.1421 4.83733 11.7224 4.43859L10.203 2.99516C9.78331 2.5964 9.12013 2.61366 8.72164 3.0331C8.32289 3.45282 8.33988 4.11574 8.75959 4.51448V4.51448Z" fill="#051B44"/>
<path d="M17.0207 2.85544L16.9828 1.37406C16.9264 0.829495 16.4607 0.419789 15.9135 0.433789C15.3662 0.447789 14.9221 0.880858 14.8937 1.42757L14.9316 2.90895C14.988 3.45351 15.4537 3.8627 16.0009 3.8487C16.5481 3.8347 16.9923 3.40215 17.0207 2.85544L17.0207 2.85544Z" fill="#051B44"/>
<path d="M21.6725 26.2678L23.116 27.7871C23.5147 28.2069 23.4977 28.8698 23.078 29.2685C22.6586 29.667 21.9954 29.6503 21.5966 29.2306L20.1532 27.7112C19.7545 27.2915 19.7717 26.6283 20.1911 26.2299C20.6109 25.8311 21.2738 25.8481 21.6725 26.2678Z" fill="#051B44"/>
<path d="M8.75959 27.4855L10.2789 26.0421C10.6986 25.6433 11.3616 25.6603 11.7603 26.08C12.1588 26.4995 12.1421 27.1627 11.7224 27.5614L10.203 29.0048C9.78331 29.4036 9.12013 29.3863 8.72164 28.9669C8.32289 28.5472 8.33988 27.8843 8.75959 27.4855V27.4855Z" fill="#051B44"/>
<path d="M17.0207 29.1446L16.9828 30.6259C16.9264 31.1705 16.4607 31.5802 15.9135 31.5662C15.3662 31.5522 14.9221 31.1191 14.8937 30.5724L14.9316 29.091C14.988 28.5465 15.4537 28.1373 16.0009 28.1513C16.5481 28.1653 16.9923 28.5978 17.0207 29.1446L17.0207 29.1446Z" fill="#051B44"/>
</svg>
