<svg width="32" height="32" viewBox="0 0 32 32" fill="none" xmlns="http://www.w3.org/2000/svg">
<path d="M17.6002 15.7334C17.6002 19.1254 14.8588 21.8668 11.4668 21.8668C8.07483 21.8668 5.3335 19.1254 5.3335 15.7334C5.3335 12.3414 8.07483 9.6001 11.4668 9.6001" stroke="white" stroke-width="2.4" stroke-linecap="round" stroke-linejoin="round"/>
<path d="M13.8667 15.7335C13.8667 12.2028 16.736 9.3335 20.2667 9.3335C23.7974 9.3335 26.6667 12.2028 26.6667 15.7335C26.6667 19.2642 23.7974 22.1335 20.2667 22.1335" stroke="white" stroke-width="2.4" stroke-linecap="round" stroke-linejoin="round"/>
<path d="M21.6725 5.73171L23.116 4.21238C23.5147 3.79266 23.4977 3.12973 23.078 2.73099C22.6586 2.33249 21.9954 2.34924 21.5966 2.76894L20.1532 4.28827C19.7545 4.70799 19.7717 5.37116 20.1911 5.76965C20.6109 6.16841 21.2738 6.15141 21.6725 5.73171Z" fill="white"/>
<path d="M8.75959 4.514L10.2789 5.95743C10.6986 6.35619 11.3616 6.33919 11.7603 5.91949C12.1588 5.50003 12.1421 4.83684 11.7224 4.4381L10.203 2.99467C9.78331 2.59592 9.12013 2.61317 8.72164 3.03261C8.32289 3.45233 8.33988 4.11526 8.75959 4.514V4.514Z" fill="white"/>
<path d="M17.0202 2.85544L16.9823 1.37406C16.9259 0.829495 16.4602 0.419789 15.913 0.433789C15.3658 0.447789 14.9216 0.880858 14.8932 1.42757L14.9312 2.90895C14.9875 3.45351 15.4532 3.8627 16.0004 3.8487C16.5477 3.8347 16.9918 3.40215 17.0202 2.85544L17.0202 2.85544Z" fill="white"/>
<path d="M21.6725 26.2683L23.116 27.7876C23.5147 28.2073 23.4977 28.8703 23.078 29.269C22.6586 29.6675 21.9954 29.6508 21.5966 29.2311L20.1532 27.7117C19.7545 27.292 19.7717 26.6288 20.1911 26.2303C20.6109 25.8316 21.2738 25.8486 21.6725 26.2683Z" fill="white"/>
<path d="M8.75959 27.486L10.2789 26.0426C10.6986 25.6438 11.3616 25.6608 11.7603 26.0805C12.1588 26.5 12.1421 27.1632 11.7224 27.5619L10.203 29.0053C9.78331 29.4041 9.12013 29.3868 8.72164 28.9674C8.32289 28.5477 8.33988 27.8847 8.75959 27.486V27.486Z" fill="white"/>
<path d="M17.0202 29.1446L16.9823 30.6259C16.9259 31.1705 16.4602 31.5802 15.913 31.5662C15.3658 31.5522 14.9216 31.1191 14.8932 30.5724L14.9312 29.091C14.9875 28.5465 15.4532 28.1373 16.0004 28.1513C16.5477 28.1653 16.9918 28.5978 17.0202 29.1446L17.0202 29.1446Z" fill="white"/>
</svg>
