<svg width="149" height="25" viewBox="0 0 149 25" fill="none" xmlns="http://www.w3.org/2000/svg">
<path d="M4.8999 24.4421C4.8999 24.7503 4.65531 25 4.35357 25H0.54633C0.2446 25 0 24.7503 0 24.4421V0.55788C0 0.249763 0.2446 0 0.54633 0H4.35357C4.65531 0 4.8999 0.249763 4.8999 0.55788V24.4421ZM29.0409 24.4421C29.0409 24.7503 28.7964 25 28.4945 25H24.1126C23.9187 25 23.7393 24.8951 23.6412 24.7241L15.376 10.3166C15.0944 9.82572 14.3582 10.0297 14.3582 10.5986V24.4421C14.3582 24.7503 14.1136 25 13.8119 25H10.0047C9.70293 25 9.45834 24.7503 9.45834 24.4421V0.55788C9.45834 0.249763 9.70293 0 10.0047 0H14.3864C14.5804 0 14.7599 0.105104 14.8579 0.276122L23.1231 14.6987C23.4046 15.19 24.141 14.9861 24.141 14.417V0.55788C24.141 0.249763 24.3856 0 24.6873 0H28.4945C28.7964 0 29.0409 0.249763 29.0409 0.55788V24.4421ZM38.4992 24.4421C38.4992 24.7503 38.2547 25 37.9529 25H34.1455C33.8436 25 33.5992 24.7503 33.5992 24.4421V0.55788C33.5992 0.249763 33.8436 0 34.1455 0H37.9529C38.2547 0 38.4992 0.249763 38.4992 0.55788V10.817C38.4992 11.3543 39.1695 11.581 39.4837 11.1503L47.4522 0.224659C47.5554 0.0832917 47.7177 0 47.8903 0H52.0903C52.5402 0 52.7972 0.524407 52.5276 0.892245L45.6586 10.2604C45.5302 10.4353 45.5138 10.6706 45.6165 10.8622L52.7401 24.1746C52.939 24.5464 52.6756 25 52.2607 25H47.9412C47.7409 25 47.5565 24.8881 47.4609 24.7082L42.6453 15.6538C42.4552 15.2962 41.9662 15.26 41.7277 15.5861L38.6079 19.8477C38.5374 19.9442 38.4992 20.0614 38.4992 20.1819V24.4421ZM72.5935 24.4421C72.5935 24.7503 72.349 25 72.0471 25H55.9987C55.6968 25 55.4524 24.7503 55.4524 24.4421V0.55788C55.4524 0.249763 55.6968 0 55.9987 0H59.8061C60.1079 0 60.3524 0.249763 60.3524 0.55788V19.4385C60.3524 19.7467 60.5969 19.9964 60.8987 19.9964H72.0471C72.349 19.9964 72.5935 20.246 72.5935 20.5543V24.4421ZM93.6102 15.0106C93.6102 16.3936 93.354 17.6951 92.8421 18.9158C92.3296 20.1244 91.6298 21.1819 90.742 22.0884C89.8542 22.9835 88.8129 23.6923 87.6176 24.2156C86.4339 24.7384 85.1648 25 83.8104 25C82.4561 25 81.1812 24.7384 79.9861 24.2156C78.8025 23.6923 77.7667 22.9835 76.8789 22.0884C76.0026 21.1819 75.3082 20.1244 74.796 18.9158C74.2838 17.6951 74.0276 16.3936 74.0276 15.0106V0.55788C74.0276 0.249763 74.2721 0 74.5739 0H78.3644C78.6662 0 78.9107 0.249763 78.9107 0.55788V15.0106C78.9107 15.6962 79.0358 16.3411 79.286 16.9456C79.548 17.5501 79.9006 18.0789 80.3448 18.5319C80.7884 18.9855 81.3064 19.3456 81.8983 19.6131C82.5014 19.8686 83.139 19.9964 83.8104 19.9964C84.4819 19.9964 85.1137 19.8686 85.7054 19.6131C86.3088 19.3456 86.8325 18.9855 87.2761 18.5319C87.7203 18.0789 88.0672 17.5501 88.3177 16.9456C88.5794 16.3411 88.7102 15.6962 88.7102 15.0106V0.55788C88.7102 0.249763 88.9547 0 89.2565 0H93.0639C93.3658 0 93.6102 0.249763 93.6102 0.55788V15.0106ZM111.554 15.0106C111.856 15.0106 112.1 14.7609 112.1 14.4527V10.007C112.1 9.32125 111.969 8.67621 111.707 8.07183C111.457 7.45584 111.11 6.9212 110.666 6.46792C110.222 6.01464 109.699 5.66017 109.095 5.40446C108.503 5.13715 107.872 5.00349 107.2 5.00349C106.529 5.00349 105.891 5.13715 105.288 5.40446C104.696 5.66017 104.178 6.01464 103.734 6.46792C103.291 6.9212 102.938 7.45584 102.676 8.07183C102.426 8.67621 102.3 9.32125 102.3 10.007V14.4527C102.3 14.7609 102.545 15.0106 102.847 15.0106H111.554ZM117 24.4421C117 24.7503 116.756 25 116.454 25H112.647C112.345 25 112.1 24.7503 112.1 24.4421V20.5543C112.1 20.246 111.856 19.9964 111.554 19.9964H102.847C102.545 19.9964 102.3 20.246 102.3 20.5543V24.4421C102.3 24.7503 102.056 25 101.754 25H97.964C97.6621 25 97.4176 24.7503 97.4176 24.4421V10.007C97.4176 8.62391 97.6736 7.32798 98.1858 6.11925C98.6979 4.89888 99.3923 3.83543 100.269 2.92887C101.156 2.02232 102.192 1.30753 103.376 0.784519C104.571 0.261506 105.846 0 107.2 0C108.555 0 109.824 0.261506 111.008 0.784519C112.202 1.30753 113.244 2.02232 114.132 2.92887C115.02 3.83543 115.72 4.89888 116.232 6.11925C116.744 7.32798 117 8.62391 117 10.007V24.4421Z" fill="white"/>
<path fill-rule="evenodd" clip-rule="evenodd" d="M138.095 6.55922L137.398 6.76499C137.05 6.86788 136.625 6.70962 136.496 6.2744C136.368 5.83919 136.639 5.47517 136.987 5.3723L137.683 5.16652L136.654 1.68479C136.5 1.16253 135.962 0.942954 135.527 1.07157L133.786 1.586C134.12 2.71756 133.548 4.30615 131.982 4.76914C130.415 5.23212 129.072 4.20939 128.737 3.07784L126.655 3.69309C126.213 3.82375 125.89 4.33319 126.035 4.8228L127.064 8.30453L127.934 8.04732C128.283 7.94443 128.708 8.10267 128.836 8.5379C128.965 8.97311 128.694 9.33713 128.346 9.44001L127.475 9.69723L131.694 23.9723C131.848 24.4946 132.386 24.7142 132.821 24.5855L134.736 24.0197C134.273 22.4529 135.183 21.0482 136.489 20.6625C137.795 20.2766 139.296 20.874 139.785 22.5279L141.7 21.9619C142.135 21.8333 142.467 21.3565 142.313 20.8342L138.095 6.55922ZM130.372 7.32712C130.023 7.43 129.752 7.79402 129.881 8.22923C130.01 8.66446 130.435 8.8227 130.783 8.71981L131.654 8.4626C132.002 8.35971 132.273 7.99569 132.144 7.56048C132.015 7.12526 131.59 6.96703 131.242 7.0699L130.372 7.32712ZM133.679 6.3497C133.331 6.45259 133.06 6.81661 133.189 7.25183C133.317 7.68704 133.743 7.84528 134.091 7.74241L134.961 7.48518C135.309 7.38229 135.58 7.01829 135.452 6.58308C135.323 6.14784 134.898 5.98961 134.55 6.0925L133.679 6.3497Z" fill="#7170E4"/>
<path fill-rule="evenodd" clip-rule="evenodd" d="M146.75 9.54306L146.051 9.3469C145.702 9.24882 145.426 8.88855 145.549 8.45162C145.671 8.01466 146.094 7.85058 146.444 7.94867L147.143 8.14483L148.124 4.64927C148.271 4.12494 147.932 3.65279 147.495 3.53016L145.747 3.03975C145.429 4.1758 144.099 5.21691 142.527 4.77552C140.953 4.33413 140.36 2.75357 140.679 1.61751L138.588 1.03097C138.144 0.906388 137.6 1.16614 137.462 1.65768L136.481 5.15324L137.355 5.39845C137.705 5.49653 137.981 5.85679 137.858 6.29373C137.736 6.73069 137.312 6.89477 136.963 6.79668L136.089 6.55147L132.068 20.8832C131.921 21.4075 132.259 21.8796 132.696 22.0023L134.619 22.5418C135.06 20.9687 136.578 20.2635 137.889 20.6313C139.2 20.999 140.153 22.3037 139.687 23.9639L141.61 24.5034C142.047 24.6262 142.582 24.3991 142.729 23.8748L146.75 9.54306ZM139.802 6.08505C139.453 5.98697 139.03 6.15105 138.907 6.58799C138.784 7.02493 139.06 7.38519 139.41 7.48327L140.284 7.7285C140.633 7.82658 141.057 7.66249 141.179 7.22555C141.302 6.7886 141.026 6.42835 140.676 6.33026L139.802 6.08505ZM143.123 7.01685C142.773 6.91877 142.35 7.08286 142.228 7.51979C142.105 7.95675 142.381 8.31699 142.731 8.41509L143.605 8.6603C143.954 8.75838 144.377 8.5943 144.5 8.15736C144.622 7.7204 144.347 7.36016 143.997 7.26208L143.123 7.01685Z" fill="#5145BD"/>
</svg>
