<svg width="33" height="33" viewBox="0 0 33 33" fill="none" xmlns="http://www.w3.org/2000/svg">
<path d="M19.3161 22.1806C19.3161 24.5297 18.2941 26.6533 16.6617 28.0999C15.2548 29.374 13.3968 30.1438 11.3529 30.1438C6.95982 30.1438 3.38965 26.5736 3.38965 22.1806C3.38965 18.5175 5.88479 15.4119 9.25589 14.4961C10.1717 16.8054 12.1359 18.5839 14.5647 19.2475C15.2283 19.4333 15.9317 19.5262 16.6617 19.5262C17.3916 19.5262 18.0951 19.4333 18.7587 19.2475C19.117 20.15 19.3161 21.1454 19.3161 22.1806Z" stroke="#051B44" stroke-width="2.4" stroke-linecap="round" stroke-linejoin="round"/>
<path d="M24.6247 11.5628C24.6247 12.598 24.4256 13.5934 24.0673 14.4959C23.1515 16.8053 21.1872 18.5837 18.7584 19.2473C18.0948 19.4331 17.3914 19.526 16.6615 19.526C15.9315 19.526 15.2281 19.4331 14.5645 19.2473C12.1357 18.5837 10.1714 16.8053 9.25567 14.4959C8.89732 13.5934 8.69824 12.598 8.69824 11.5628C8.69824 7.16979 12.2684 3.59961 16.6615 3.59961C21.0545 3.59961 24.6247 7.16979 24.6247 11.5628Z" stroke="#051B44" stroke-width="2.4" stroke-linecap="round" stroke-linejoin="round"/>
<path d="M29.9341 22.1806C29.9341 26.5736 26.364 30.1438 21.9709 30.1438C19.927 30.1438 18.0689 29.374 16.6621 28.0999C18.2946 26.6533 19.3165 24.5297 19.3165 22.1806C19.3165 21.1454 19.1174 20.15 18.7591 19.2475C21.1879 18.5839 23.1521 16.8054 24.0679 14.4961C27.439 15.4119 29.9341 18.5175 29.9341 22.1806Z" stroke="#051B44" stroke-width="2.4" stroke-linecap="round" stroke-linejoin="round"/>
</svg>
