<svg width="33" height="33" viewBox="0 0 33 33" fill="none" xmlns="http://www.w3.org/2000/svg">
<path d="M19.3156 22.1801C19.3156 24.5293 18.2937 26.6528 16.6612 28.0994C15.2544 29.3736 13.3963 30.1433 11.3524 30.1433C6.95934 30.1433 3.38916 26.5732 3.38916 22.1801C3.38916 18.517 5.8843 15.4114 9.2554 14.4956C10.1712 16.8049 12.1354 18.5834 14.5642 19.247C15.2278 19.4328 15.9312 19.5257 16.6612 19.5257C17.3912 19.5257 18.0946 19.4328 18.7582 19.247C19.1165 20.1495 19.3156 21.1449 19.3156 22.1801Z" stroke="white" stroke-width="2.4" stroke-linecap="round" stroke-linejoin="round"/>
<path d="M24.6247 11.5623C24.6247 12.5976 24.4256 13.593 24.0673 14.4955C23.1515 16.8048 21.1872 18.5832 18.7584 19.2468C18.0948 19.4327 17.3914 19.5256 16.6615 19.5256C15.9315 19.5256 15.2281 19.4327 14.5645 19.2468C12.1357 18.5832 10.1714 16.8048 9.25567 14.4955C8.89732 13.593 8.69824 12.5976 8.69824 11.5623C8.69824 7.1693 12.2684 3.59912 16.6615 3.59912C21.0545 3.59912 24.6247 7.1693 24.6247 11.5623Z" stroke="white" stroke-width="2.4" stroke-linecap="round" stroke-linejoin="round"/>
<path d="M29.9332 22.1801C29.9332 26.5732 26.363 30.1433 21.9699 30.1433C19.9261 30.1433 18.068 29.3736 16.6611 28.0994C18.2936 26.6528 19.3155 24.5293 19.3155 22.1801C19.3155 21.1449 19.1165 20.1495 18.7581 19.247C21.1869 18.5834 23.1512 16.8049 24.0669 14.4956C27.438 15.4114 29.9332 18.517 29.9332 22.1801Z" stroke="white" stroke-width="2.4" stroke-linecap="round" stroke-linejoin="round"/>
</svg>
