<svg width="33" height="33" viewBox="0 0 33 33" fill="none" xmlns="http://www.w3.org/2000/svg">
<path d="M2.75012 16.5L1.67642 15.641L0.989258 16.5L1.67642 17.3589L2.75012 16.5ZM15.1251 17.875C15.8845 17.875 16.5001 17.2594 16.5001 16.5C16.5001 15.7405 15.8845 15.125 15.1251 15.125V17.875ZM7.17642 8.76599L1.67642 15.641L3.82381 17.3589L9.32381 10.4839L7.17642 8.76599ZM1.67642 17.3589L7.17642 24.2339L9.32381 22.516L3.82381 15.641L1.67642 17.3589ZM2.75012 17.875H15.1251V15.125H2.75012V17.875Z" fill="#574CD5"/>
<path d="M13.75 11.1814V10.1592C13.75 7.93402 13.75 6.82142 14.4017 6.0521C15.0534 5.2828 16.1509 5.0999 18.3458 4.73407L20.6437 4.35109C25.103 3.60788 27.3325 3.23628 28.7913 4.47198C30.25 5.70769 30.25 7.96807 30.25 12.4888V20.5112C30.25 25.0321 30.25 27.2924 28.7913 28.5281C27.3325 29.7638 25.103 29.3922 20.6437 28.649L18.3458 28.2661C16.1509 27.9002 15.0534 27.7173 14.4017 26.948C13.75 26.1787 13.75 25.066 13.75 22.8409V22.0908" stroke="#574CD5" stroke-width="3"/>
</svg>
