<svg width="13" height="14" viewBox="0 0 13 14" fill="none" xmlns="http://www.w3.org/2000/svg">
<path d="M1.03175 1.23304C1.36753 0.897255 1.91195 0.897255 2.24774 1.23304L6.79875 5.78405L11.3498 1.23304C11.6855 0.897255 12.23 0.897255 12.5657 1.23304C12.9015 1.56883 12.9015 2.11324 12.5657 2.44903L8.01473 7.00004L12.5657 11.5511C12.9015 11.8868 12.9015 12.4313 12.5657 12.767C12.23 13.1028 11.6855 13.1028 11.3498 12.767L6.79875 8.21603L2.24774 12.767C1.91195 13.1028 1.36753 13.1028 1.03175 12.767C0.695961 12.4313 0.695961 11.8868 1.03175 11.5511L5.58276 7.00004L1.03175 2.44903C0.695961 2.11324 0.695961 1.56883 1.03175 1.23304Z" fill="white"/>
</svg>
