<svg width="33" height="33" viewBox="0 0 33 33" fill="none" xmlns="http://www.w3.org/2000/svg">
<path d="M2.75 16.5001L1.6763 15.6411L0.989136 16.5001L1.6763 17.359L2.75 16.5001ZM15.125 17.8751C15.8844 17.8751 16.5 17.2595 16.5 16.5001C16.5 15.7407 15.8844 15.1251 15.125 15.1251V17.8751ZM7.1763 8.76611L1.6763 15.6411L3.82369 17.359L9.32369 10.484L7.1763 8.76611ZM1.6763 17.359L7.1763 24.234L9.32369 22.5161L3.82369 15.6411L1.6763 17.359ZM2.75 17.8751H15.125V15.1251H2.75V17.8751Z" fill="#6B2CFF"/>
<path d="M13.75 11.1814V10.1592C13.75 7.93402 13.75 6.82142 14.4017 6.0521C15.0534 5.2828 16.1509 5.0999 18.3458 4.73407L20.6437 4.35109C25.103 3.60788 27.3325 3.23628 28.7913 4.47198C30.25 5.70769 30.25 7.96807 30.25 12.4888V20.5112C30.25 25.0321 30.25 27.2924 28.7913 28.5281C27.3325 29.7638 25.103 29.3922 20.6437 28.649L18.3458 28.2661C16.1509 27.9002 15.0534 27.7173 14.4017 26.948C13.75 26.1787 13.75 25.066 13.75 22.8409V22.0908" stroke="#6B2CFF" stroke-width="3"/>
</svg>
