<svg width="823" height="314" viewBox="0 0 823 314" fill="none" xmlns="http://www.w3.org/2000/svg">
<rect width="823" height="314" fill="#051B44"/>
<path d="M354 146C367.807 146 379 134.583 379 120.5C379 106.417 367.807 95 354 95C340.193 95 329 106.417 329 120.5C329 134.583 340.193 146 354 146Z" fill="#6B2CFF"/>
<path d="M389 210C402.807 210 414 198.807 414 185C414 171.193 402.807 160 389 160C375.193 160 364 171.193 364 185C364 198.807 375.193 210 389 210Z" fill="#6B2CFF"/>
<path d="M182 143C195.807 143 207 131.807 207 118C207 104.193 195.807 93 182 93C168.193 93 157 104.193 157 118C157 131.807 168.193 143 182 143Z" fill="#6B2CFF"/>
<path d="M598 239C611.807 239 623 227.807 623 214C623 200.193 611.807 189 598 189C584.193 189 573 200.193 573 214C573 227.807 584.193 239 598 239Z" fill="#6B2CFF"/>
<path d="M442.5 145C467.629 145 488 124.629 488 99.5C488 74.371 467.629 54 442.5 54C417.371 54 397 74.371 397 99.5C397 124.629 417.371 145 442.5 145Z" fill="#6B2CFF"/>
<path d="M176.25 204C176.25 205.105 175.355 206 174.25 206H160.312C159.208 206 158.312 205.105 158.312 204V118.375C158.312 117.27 159.208 116.375 160.312 116.375H174.25C175.355 116.375 176.25 117.27 176.25 118.375V204ZM264.625 204C264.625 205.105 263.73 206 262.625 206H246.584C245.874 206 245.217 205.624 244.858 205.011L214.601 153.36C213.57 151.6 210.875 152.331 210.875 154.371V204C210.875 205.105 209.98 206 208.875 206H194.938C193.833 206 192.938 205.105 192.938 204V118.375C192.938 117.27 193.833 116.375 194.938 116.375H210.978C211.688 116.375 212.345 116.752 212.704 117.365L242.961 169.07C243.992 170.831 246.688 170.1 246.688 168.06V118.375C246.688 117.27 247.583 116.375 248.688 116.375H262.625C263.73 116.375 264.625 117.27 264.625 118.375V204ZM299.25 204C299.25 205.105 298.355 206 297.25 206H283.312C282.207 206 281.312 205.105 281.312 204V118.375C281.312 117.27 282.207 116.375 283.312 116.375H297.25C298.355 116.375 299.25 117.27 299.25 118.375V155.154C299.25 157.08 301.704 157.893 302.854 156.349L332.025 117.18C332.403 116.674 332.997 116.375 333.629 116.375H349.004C350.651 116.375 351.592 118.255 350.605 119.574L325.459 153.159C324.989 153.786 324.929 154.629 325.305 155.316L351.383 203.041C352.111 204.374 351.147 206 349.628 206H333.815C333.082 206 332.407 205.599 332.057 204.954L314.428 172.494C313.732 171.212 311.942 171.082 311.069 172.251L299.648 187.529C299.39 187.875 299.25 188.295 299.25 188.727V204ZM424.062 204C424.062 205.105 423.167 206 422.062 206H363.312C362.207 206 361.312 205.105 361.312 204V118.375C361.312 117.27 362.207 116.375 363.312 116.375H377.25C378.355 116.375 379.25 117.27 379.25 118.375V186.062C379.25 187.167 380.145 188.062 381.25 188.062H422.062C423.167 188.062 424.062 188.957 424.062 190.062V204ZM501 170.188C501 175.146 500.062 179.812 498.188 184.188C496.312 188.521 493.75 192.312 490.5 195.562C487.25 198.771 483.438 201.312 479.062 203.188C474.729 205.062 470.083 206 465.125 206C460.167 206 455.5 205.062 451.125 203.188C446.792 201.312 443 198.771 439.75 195.562C436.542 192.312 434 188.521 432.125 184.188C430.25 179.812 429.312 175.146 429.312 170.188V118.375C429.312 117.27 430.207 116.375 431.312 116.375H445.188C446.293 116.375 447.188 117.27 447.188 118.375V170.188C447.188 172.646 447.646 174.958 448.562 177.125C449.521 179.292 450.812 181.188 452.438 182.812C454.062 184.438 455.958 185.729 458.125 186.688C460.333 187.604 462.667 188.062 465.125 188.062C467.583 188.062 469.896 187.604 472.062 186.688C474.271 185.729 476.188 184.438 477.812 182.812C479.438 181.188 480.708 179.292 481.625 177.125C482.583 174.958 483.062 172.646 483.062 170.188V118.375C483.062 117.27 483.957 116.375 485.062 116.375H499C500.105 116.375 501 117.27 501 118.375V170.188ZM566.688 170.188C567.793 170.188 568.688 169.293 568.688 168.188V152.25C568.688 149.792 568.208 147.479 567.25 145.312C566.333 143.104 565.062 141.188 563.438 139.562C561.812 137.938 559.896 136.667 557.688 135.75C555.521 134.792 553.208 134.312 550.75 134.312C548.292 134.312 545.958 134.792 543.75 135.75C541.583 136.667 539.688 137.938 538.062 139.562C536.438 141.188 535.146 143.104 534.188 145.312C533.271 147.479 532.812 149.792 532.812 152.25V168.188C532.812 169.293 533.707 170.188 534.812 170.188H566.688ZM586.625 204C586.625 205.105 585.73 206 584.625 206H570.688C569.583 206 568.688 205.105 568.688 204V190.062C568.688 188.957 567.793 188.062 566.688 188.062H534.812C533.707 188.062 532.812 188.957 532.812 190.062V204C532.812 205.105 531.917 206 530.812 206H516.938C515.833 206 514.938 205.105 514.938 204V152.25C514.938 147.292 515.875 142.646 517.75 138.312C519.625 133.938 522.167 130.125 525.375 126.875C528.625 123.625 532.417 121.062 536.75 119.188C541.125 117.312 545.792 116.375 550.75 116.375C555.708 116.375 560.354 117.312 564.688 119.188C569.062 121.062 572.875 123.625 576.125 126.875C579.375 130.125 581.938 133.938 583.812 138.312C585.688 142.646 586.625 147.292 586.625 152.25V204Z" fill="white"/>
<path d="M485.969 267C485.969 268.105 485.074 269 483.969 269H479.031C477.927 269 477.031 268.105 477.031 267V235.156C477.031 234.051 476.136 233.156 475.031 233.156H465.562C464.458 233.156 463.562 232.261 463.562 231.156V226.188C463.562 225.083 464.458 224.188 465.562 224.188H497.406C498.511 224.188 499.406 225.083 499.406 226.188V231.156C499.406 232.261 498.511 233.156 497.406 233.156H487.969C486.865 233.156 485.969 234.051 485.969 235.156V267ZM513.125 267C513.125 268.105 512.23 269 511.125 269H506.156C505.052 269 504.156 268.105 504.156 267V226.188C504.156 225.083 505.052 224.188 506.156 224.188H511.125C512.23 224.188 513.125 225.083 513.125 226.188V267ZM556.369 262.957C556.878 263.793 556.712 264.882 555.926 265.464C554.191 266.749 552.299 267.771 550.25 268.531C547.667 269.49 544.99 269.969 542.219 269.969C540.094 269.969 538.043 269.688 536.062 269.125C534.104 268.583 532.26 267.812 530.531 266.812C528.823 265.792 527.26 264.573 525.844 263.156C524.427 261.74 523.208 260.177 522.188 258.469C521.188 256.74 520.406 254.896 519.844 252.938C519.302 250.958 519.031 248.906 519.031 246.781C519.031 244.656 519.302 242.604 519.844 240.625C520.406 238.646 521.188 236.802 522.188 235.094C523.208 233.365 524.427 231.792 525.844 230.375C527.26 228.958 528.823 227.75 530.531 226.75C532.26 225.729 534.104 224.948 536.062 224.406C538.043 223.844 540.094 223.562 542.219 223.562C544.99 223.562 547.667 224.042 550.25 225C552.304 225.746 554.201 226.767 555.939 228.066C556.719 228.649 556.881 229.733 556.375 230.566L553.877 234.674C553.187 235.809 551.598 235.96 550.521 235.183C549.698 234.589 548.805 234.09 547.844 233.688C546.052 232.917 544.177 232.531 542.219 232.531C540.24 232.531 538.385 232.906 536.656 233.656C534.927 234.406 533.417 235.427 532.125 236.719C530.833 237.99 529.812 239.5 529.062 241.25C528.312 242.979 527.938 244.823 527.938 246.781C527.938 248.74 528.312 250.583 529.062 252.312C529.812 254.021 530.833 255.521 532.125 256.812C533.417 258.104 534.927 259.125 536.656 259.875C538.385 260.625 540.24 261 542.219 261C544.177 261 546.052 260.625 547.844 259.875C548.807 259.461 549.701 258.953 550.525 258.352C551.599 257.57 553.187 257.722 553.876 258.857L556.369 262.957ZM571.438 267C571.438 268.105 570.543 269 569.438 269H564.469C563.365 269 562.469 268.105 562.469 267V226.188C562.469 225.083 563.365 224.188 564.469 224.188H569.438C570.543 224.188 571.438 225.083 571.438 226.188V240.56C571.438 242.486 573.892 243.299 575.043 241.755L587.526 224.993C587.903 224.487 588.498 224.188 589.13 224.188H594.316C595.964 224.188 596.905 226.068 595.917 227.387L584.927 242.065C584.458 242.692 584.397 243.535 584.773 244.222L596.696 266.041C597.424 267.374 596.459 269 594.941 269H589.315C588.582 269 587.908 268.599 587.558 267.955L579.772 253.619C579.076 252.337 577.285 252.208 576.412 253.376L571.836 259.499C571.578 259.844 571.438 260.264 571.438 260.696V267ZM633.188 267C633.188 268.105 632.293 269 631.188 269H604.469C603.365 269 602.469 268.105 602.469 267V226.188C602.469 225.083 603.365 224.188 604.469 224.188H631.188C632.293 224.188 633.188 225.083 633.188 226.188V231.156C633.188 232.261 632.293 233.156 631.188 233.156H613.438C612.334 233.156 611.438 234.051 611.438 235.156V240.125C611.438 241.23 612.334 242.125 613.438 242.125H624.156C625.261 242.125 626.156 243.02 626.156 244.125V249.094C626.156 250.199 625.261 251.094 624.156 251.094H613.438C612.334 251.094 611.438 251.989 611.438 253.094V258.031C611.438 259.136 612.334 260.031 613.438 260.031H631.188C632.293 260.031 633.188 260.926 633.188 262.031V267ZM658.281 267C658.281 268.105 657.386 269 656.281 269H651.344C650.24 269 649.344 268.105 649.344 267V235.156C649.344 234.051 648.449 233.156 647.344 233.156H637.875C636.771 233.156 635.875 232.261 635.875 231.156V226.188C635.875 225.083 636.771 224.188 637.875 224.188H669.719C670.824 224.188 671.719 225.083 671.719 226.188V231.156C671.719 232.261 670.824 233.156 669.719 233.156H660.281C659.177 233.156 658.281 234.051 658.281 235.156V267Z" fill="white"/>
</svg>
